<svg width="600" height="600" viewBox="0 0 600 600" fill="none" xmlns="http://www.w3.org/2000/svg"><g clip-path="url(#clip0_2257_1556)"><path d="M332.995 600.364C480.659 600.364 600.364 480.659 600.364 332.995C600.364 185.331 480.659 65.625 332.995 65.625C185.331 65.625 65.625 185.331 65.625 332.995C65.625 480.659 185.331 600.364 332.995 600.364Z" fill="url(#paint0_linear_2257_1556)"/><path d="M267.01 534.38C414.675 534.38 534.38 414.675 534.38 267.01C534.38 119.346 414.675 -0.359375 267.01 -0.359375C119.346 -0.359375 -0.359375 119.346 -0.359375 267.01C-0.359375 414.675 119.346 534.38 267.01 534.38Z" fill="#1464A5"/><path d="M392.774 31.0234L141.695 503.289C204.322 536.584 277.609 543.637 345.436 522.897C413.263 502.156 470.072 455.322 503.367 392.695C536.662 330.069 543.716 256.781 522.975 188.955C502.235 121.128 455.4 64.3186 392.774 31.0234Z" fill="url(#paint1_linear_2257_1556)"/><path d="M338.218 208.801C345.649 198.599 343.405 184.308 333.207 176.88C323.009 169.451 308.718 171.7 301.288 181.901L194.753 328.161C187.322 338.362 189.565 352.654 199.763 360.082C209.961 367.51 224.252 365.262 231.683 355.061L338.218 208.801Z" fill="#2DCCCD"/><path d="M269.757 186.637C277.188 176.435 274.944 162.144 264.746 154.715C254.548 147.287 240.257 149.536 232.827 159.737L206.202 196.289C198.772 206.491 201.015 220.782 211.213 228.211C221.411 235.639 235.702 233.391 243.132 223.189L269.757 186.637Z" fill="#2DCCCD"/><path d="M184.101 173.476C196.687 173.476 206.89 163.273 206.89 150.687C206.89 138.101 196.687 127.898 184.101 127.898C171.515 127.898 161.312 138.101 161.312 150.687C161.312 163.273 171.515 173.476 184.101 173.476Z" fill="#2DCCCD"/><path d="M263.894 348.768C256.491 358.957 258.747 373.216 268.932 380.616C279.118 388.017 293.376 385.756 300.779 375.567L327.304 339.059C334.706 328.87 332.45 314.611 322.265 307.21C312.079 299.81 297.821 302.071 290.418 312.26L263.894 348.768Z" fill="#2DCCCD"/><path d="M349.914 406.132C362.499 406.132 372.702 395.929 372.702 383.343C372.702 370.757 362.499 360.555 349.914 360.555C337.328 360.555 327.125 370.757 327.125 383.343C327.125 395.929 337.328 406.132 349.914 406.132Z" fill="#2DCCCD"/></g><defs><linearGradient id="paint0_linear_2257_1556" x1="241.529" y1="81.6827" x2="424.46" y2="584.307" gradientUnits="userSpaceOnUse"><stop stop-color="#192647" stop-opacity="0.5" offset="0"/><stop offset="1" stop-color="#192647" stop-opacity="0"/></linearGradient><linearGradient id="paint1_linear_2257_1556" x1="534.371" y1="282.709" x2="141.695" y2="282.709" gradientUnits="userSpaceOnUse"><stop stop-color="#043263" stop-opacity="0.6" offset="0"/><stop offset="1" stop-color="#043263" stop-opacity="0"/></linearGradient><clipPath id="clip0_2257_1556"><rect width="600" height="600" fill="white"/></clipPath></defs></svg>